<svg id="Layer_1" enable-background="new 0 0 512.002 512.002" height="512" viewBox="0 0 512.002 512.002" width="512" xmlns="http://www.w3.org/2000/svg"><g><g clip-rule="evenodd" fill-rule="evenodd"><path d="m176.001 142.003h134.996c0-17.28 0-34.56 0-60.003 0-11-9-20-20-20-50.515 0-74.188 0-114.996 0z" fill="#ffda8f"/><path d="m290.998 62c11 0 20 9 20 20v60.003 60.001c0 12.375 10.125 22.5 22.5 22.5s22.5-10.125 22.5-22.5c0-50.885 0-69.119 0-120.004 0-11 9-20 20-20h40.002c0-28.6-23.401-52-52-52h-135.998c-28.599 0-52 23.4-52 52z" fill="#fff3db"/><path d="m416 62v80.003 279.999c0 10.996-9.004 20-20 20h-199.998c-10.995 0-20-9-20-20v-279.999-80.003c-9.008 0-18.85 0-30.001 0-5.5 0-10 4.5-10 10v80.003h-59.999c-21.998 0-40 18.002-40 40v149.997c0 21.998 18.004 40 40 40h59.999v80.003c-11 0-19.999 9-19.999 20s9.001 20 19.999 20h319.999c10.999 0 20-9 20-20s-8.999-20-20-20v-390.003c0-5.499-4.5-10-10-10-9.999 0-20 0-30 0zm-279.999 130.003v149.997c-26.667 0-33.333 0-59.999 0 0-63.333 0-86.664 0-149.997z" fill="#fff"/><path d="m310.998 202.004c0-25.442 0-42.721 0-60.001h-39.996-94.999v279.999c0 11 9.005 20 20 20h199.997c10.996 0 20-9.004 20-20v-279.999h-60.002v60.001c0 12.375-10.125 22.5-22.5 22.5s-22.5-10.125-22.5-22.5z" fill="#ffc144"/><path d="m355.998 82v60.003h60.002v-80.003c-13.334 0-26.668 0-40.002 0-11.001 0-20 9-20 20z" fill="#ffda8f"/></g><g><path d="m466.001 453.716v-381.716c0-11.028-8.972-20-20-20h-20.819c-4.797-29.447-30.4-52-61.182-52h-135.997c-30.782 0-56.386 22.553-61.183 52h-20.819c-11.028 0-20 8.972-20 20v70.003h-49.999c-27.57 0-50 22.43-50 50v149.997c0 27.569 22.43 49.999 50 49.999h49.999v61.717c-11.641 4.127-19.999 15.248-19.999 28.286 0 16.542 13.457 30 29.999 30h320c16.542 0 29.999-13.458 29.999-30 0-13.038-8.358-24.159-19.999-28.286zm-60.001-321.713h-40.002v-50.003c0-5.514 4.485-10 9.999-10h30.003zm-177.997-112.003h135.997c19.713 0 36.289 13.655 40.787 32h-28.79c-16.542 0-29.999 13.458-29.999 30v120.004c0 6.893-5.607 12.5-12.5 12.5s-12.5-5.607-12.5-12.5v-120.004c0-16.542-13.458-30-30-30h-103.783c4.499-18.345 21.075-32 40.788-32zm-42.001 52h104.996c5.514 0 10 4.486 10 10v50.003h-.001-114.995zm269.999 420.002h-320c-5.514 0-9.999-4.486-9.999-10s4.485-10 9.999-10c5.522 0 10-4.478 10-10v-80.003c0-5.522-4.478-10-10-10h-59.999c-16.542 0-30-13.458-30-29.999v-149.997c0-16.542 13.458-30 30-30h59.999c5.522 0 10-4.478 10-10v-80.003h20.001v350.002c0 16.542 13.458 30 30 30h54.996c5.522 0 10-4.478 10-10s-4.478-10-10-10h-54.996c-5.514 0-10-4.486-10-10v-269.999h114.995.001v50.001c0 17.921 14.579 32.5 32.5 32.5s32.5-14.579 32.5-32.5v-50.001h40.002v269.999c0 5.514-4.486 10-10 10h-55.002c-5.522 0-10 4.478-10 10s4.478 10 10 10h55.002c16.542 0 30-13.458 30-30v-350.002h20.001v390.002c0 5.522 4.478 10 10 10 5.514 0 9.999 4.486 9.999 10s-4.485 10-9.999 10z"/><path d="m136.001 182.003h-59.999c-5.522 0-10 4.478-10 10v149.997c0 5.522 4.478 10 10 10h59.999c5.522 0 10-4.478 10-10v-149.997c0-5.523-4.478-10-10-10zm-10 149.997h-39.999v-129.997h39.999z"/><path d="m254.003 359.001h-.008c-5.522 0-9.996 4.478-9.996 10s4.481 10 10.004 10 10-4.478 10-10-4.478-10-10-10z"/><path d="m349.01 308.001c5.522 0 10-4.478 10-10s-4.478-10-10-10h-.008c-5.522 0-9.996 4.478-9.996 10s4.481 10 10.004 10z"/><path d="m274.002 261.002h-.007c-5.522 0-9.997 4.478-9.997 10s4.481 10 10.004 10 10-4.478 10-10-4.478-10-10-10z"/><path d="m346.003 388.001c5.522 0 10-4.478 10-10s-4.478-10-10-10h-.008c-5.522 0-9.996 4.478-9.996 10s4.481 10 10.004 10z"/><path d="m230.003 183.001h-.008c-5.522 0-9.996 4.478-9.996 10s4.481 10 10.004 10 10-4.478 10-10-4.478-10-10-10z"/><path d="m296.001 432.002h-.007c-5.522 0-9.996 4.478-9.996 10s4.48 10 10.003 10 10-4.478 10-10-4.478-10-10-10z"/></g></g></svg>