<svg id="Layer_1" enable-background="new 0 0 512.001 512.001" height="512" viewBox="0 0 512.001 512.001" width="512" xmlns="http://www.w3.org/2000/svg"><g><g clip-rule="evenodd" fill-rule="evenodd"><path d="m356.13 92.002 3.946 65.111c.783.025 1.566.037 2.349.037 40.634 0 73.575-32.941 73.575-73.575.001-40.635-32.94-73.575-73.574-73.575-40.021 0-72.703 31.99-73.558 72.002h26.215 31.048c5.499 0 9.667 4.511 9.999 10z" fill="#ffc144"/><path d="m360.076 157.112-3.946-65.111c-.333-5.489-4.5-10-10-10h-31.048l16.247 322.419c1.297 21.403-19.97 37.58-40.073 37.58h-131.625c-20.103 0-41.37-16.177-40.073-37.58l17.584-322.419h-31.01c-5.5 0-9.667 4.51-10 10l-20.001 330c-2.662 43.92 36 80 80 80h140c44 0 82.662-36.081 80-80z" fill="#fff"/><path d="m331.329 404.421-16.246-322.419h-26.215-151.726l-17.584 322.419c-1.297 21.403 19.97 37.58 40.073 37.58h131.626c20.102 0 41.37-16.177 40.072-37.58zm-99.934-232.023 31.82 31.82c-17.574 17.573-46.066 17.573-63.64 0-17.574-17.574-17.574-46.066 0-63.64zm-49 185.485 36.902-36.902 36.903-36.903c20.381 20.381 20.381 53.424 0 73.805s-53.424 20.381-73.805 0z" fill="#ff5a58"/><g fill="#ffc144"><path d="m199.575 204.218c17.574 17.574 46.066 17.574 63.64 0l-31.82-31.82-31.82-31.82c-17.573 17.574-17.573 46.066 0 63.64z"/><path d="m256.2 284.078-36.903 36.903-36.902 36.902c20.381 20.381 53.424 20.381 73.805 0 20.381-20.38 20.381-53.424 0-73.805z"/></g></g><g><path d="m446.001 83.575c0-46.084-37.492-83.575-83.575-83.575-42.261 0-77.142 31.011-82.781 72.002h-173.513c-10.545 0-19.322 8.519-19.982 19.395l-20 330c-1.368 22.569 6.758 44.433 22.881 61.563 17.372 18.457 41.829 29.042 67.101 29.042h140c25.271 0 49.729-10.585 67.1-29.042 16.124-17.129 24.25-38.993 22.882-61.563l-15.434-254.658c42.222-4.159 75.321-39.866 75.321-83.164zm-339.869-1.573v10zm242.536 387.25c-13.608 14.458-32.757 22.75-52.537 22.75h-140c-19.78 0-38.929-8.292-52.537-22.75-12.304-13.072-18.512-29.638-17.481-46.645l20-330c.018-.298.111-.5.179-.605h20.29l-4.5 82.492c-.301 5.515 3.926 10.229 9.441 10.53.185.01.37.015.553.015 5.273 0 9.686-4.126 9.977-9.456l4.559-83.581h158.962l15.768 312.922c.001.034.003.068.005.102.458 7.561-3.299 13.242-6.532 16.677-5.979 6.352-15.006 10.298-23.56 10.298h-131.624c-8.553 0-17.581-3.946-23.559-10.298-3.233-3.435-6.99-9.116-6.528-16.738l7.609-139.517c.301-5.515-3.926-10.229-9.441-10.53-5.522-.291-10.229 3.926-10.53 9.441l-7.605 139.456c-.694 11.461 3.543 22.682 11.932 31.595 9.778 10.389 24.029 16.59 38.123 16.59h131.625c14.094 0 28.346-6.202 38.124-16.59 8.375-8.899 12.613-20.098 11.935-31.54l-15.717-311.868h20.37c.068.105.161.307.179.604l20 330c1.032 17.008-5.177 33.574-17.48 46.646zm20.799-322.501-3.355-55.355c-.66-10.875-9.437-19.394-19.982-19.394h-46.226c5.436-29.797 31.334-52.002 62.522-52.002 35.055 0 63.575 28.52 63.575 63.575 0 32.675-24.781 59.66-56.534 63.176z"/><path d="m231.395 227.398c14.691 0 28.503-5.721 38.891-16.109 3.905-3.905 3.905-10.237 0-14.142l-31.819-31.82-31.82-31.82c-3.905-3.905-10.237-3.905-14.143 0-10.388 10.388-16.109 24.2-16.109 38.891s5.721 28.503 16.109 38.892 24.2 16.108 38.891 16.108zm-30.8-71.658 47.458 47.459c-5.056 2.743-10.745 4.2-16.658 4.2-9.349 0-18.138-3.641-24.749-10.251s-10.251-15.4-10.251-24.749c0-5.914 1.457-11.604 4.2-16.659z"/><path d="m219.298 383.169c16.611 0 32.228-6.469 43.973-18.214 11.746-11.746 18.215-27.362 18.215-43.974s-6.469-32.228-18.214-43.974c-1.875-1.875-4.419-2.929-7.071-2.929s-5.196 1.054-7.071 2.929l-73.805 73.805c-3.905 3.905-3.905 10.237 0 14.142 11.745 11.746 27.361 18.215 43.973 18.215zm7.071-55.117 28.993-28.994c3.991 6.539 6.124 14.067 6.124 21.922 0 11.269-4.388 21.863-12.357 29.831-7.968 7.969-18.563 12.357-29.831 12.357-7.855 0-15.383-2.133-21.922-6.124z"/><path d="m184.988 273.685c5.523 0 10-4.477 10-10s-4.477-10-10-10h-.007c-5.523 0-9.997 4.477-9.997 10s4.482 10 10.004 10z"/><path d="m163.989 405.686c5.523 0 10-4.477 10-10s-4.477-10-10-10h-.008c-5.523 0-9.996 4.477-9.996 10s4.481 10 10.004 10z"/><path d="m266.489 139.685c5.523 0 10-4.477 10-10s-4.477-10-10-10h-.007c-5.523 0-9.997 4.477-9.997 10s4.481 10 10.004 10z"/><path d="m273.985 389.686c0 5.523 4.481 10 10.004 10s10-4.477 10-10-4.477-10-10-10h-.007c-5.523 0-9.997 4.477-9.997 10z"/><path d="m129.625 229.972c5.523 0 10-4.477 10-10s-4.477-10-10-10h-.007c-5.523 0-9.996 4.477-9.996 10s4.48 10 10.003 10z"/></g></g></svg>